{
    "asset" : {
        "generator" : "Khronos glTF Blender I/O v1.7.33",
        "version" : "2.0"
    },
    "scene" : 0,
    "scenes" : [
        {
            "extras" : {
                "blosm" : {
                    "defaultLevels" : [
                        {
                            "levels" : 4,
                            "weight" : 10
                        },
                        {
                            "levels" : 5,
                            "weight" : 40
                        },
                        {
                            "levels" : 6,
                            "weight" : 10
                        }
                    ]
                }
            },
            "name" : "Scene",
            "nodes" : [
                0
            ]
        }
    ],
    "nodes" : [
        {
            "extras" : {
                "sparkar_optimization" : {
                    "InvertedReducePercentage" : 0.0
                },
                "spark_blender_addon" : 1
            },
            "mesh" : 0,
            "name" : "Cube",
            "rotation" : [
                0,
                -0.7071068286895752,
                0,
                0.7071068286895752
            ],
            "translation" : [
                0.0012180880876258016,
                6.049612522125244,
                0.28079700469970703
            ]
        }
    ],
    "materials" : [
        {
            "doubleSided" : true,
            "name" : "Material",
            "pbrMetallicRoughness" : {
                "baseColorFactor" : [
                    0.8000000715255737,
                    0.5965813994407654,
                    0.033831238746643066,
                    1
                ],
                "metallicFactor" : 0,
                "roughnessFactor" : 0.4000000059604645
            }
        },
        {
            "doubleSided" : true,
            "name" : "Material.016",
            "pbrMetallicRoughness" : {
                "baseColorFactor" : [
                    0.56683748960495,
                    0.01631896011531353,
                    0.032403454184532166,
                    1
                ],
                "metallicFactor" : 0,
                "roughnessFactor" : 0.4000000059604645
            }
        }
    ],
    "meshes" : [
        {
            "name" : "Cube",
            "primitives" : [
                {
                    "attributes" : {
                        "POSITION" : 0,
                        "NORMAL" : 1,
                        "TEXCOORD_0" : 2
                    },
                    "indices" : 3,
                    "material" : 0
                },
                {
                    "attributes" : {
                        "POSITION" : 4,
                        "NORMAL" : 5,
                        "TEXCOORD_0" : 6
                    },
                    "indices" : 7,
                    "material" : 1
                }
            ]
        }
    ],
    "accessors" : [
        {
            "bufferView" : 0,
            "componentType" : 5126,
            "count" : 954,
            "max" : [
                1.5669186115264893,
                10.823467254638672,
                26.4285888671875
            ],
            "min" : [
                -1.5423619747161865,
                -11.012317657470703,
                -28.772743225097656
            ],
            "type" : "VEC3"
        },
        {
            "bufferView" : 1,
            "componentType" : 5126,
            "count" : 954,
            "type" : "VEC3"
        },
        {
            "bufferView" : 2,
            "componentType" : 5126,
            "count" : 954,
            "type" : "VEC2"
        },
        {
            "bufferView" : 3,
            "componentType" : 5123,
            "count" : 1434,
            "type" : "SCALAR"
        },
        {
            "bufferView" : 4,
            "componentType" : 5126,
            "count" : 1084,
            "max" : [
                1.5669186115264893,
                10.823467254638672,
                26.4285888671875
            ],
            "min" : [
                -1.5423619747161865,
                -11.012317657470703,
                -28.772743225097656
            ],
            "type" : "VEC3"
        },
        {
            "bufferView" : 5,
            "componentType" : 5126,
            "count" : 1084,
            "type" : "VEC3"
        },
        {
            "bufferView" : 6,
            "componentType" : 5126,
            "count" : 1084,
            "type" : "VEC2"
        },
        {
            "bufferView" : 7,
            "componentType" : 5123,
            "count" : 1626,
            "type" : "SCALAR"
        }
    ],
    "bufferViews" : [
        {
            "buffer" : 0,
            "byteLength" : 11448,
            "byteOffset" : 0
        },
        {
            "buffer" : 0,
            "byteLength" : 11448,
            "byteOffset" : 11448
        },
        {
            "buffer" : 0,
            "byteLength" : 7632,
            "byteOffset" : 22896
        },
        {
            "buffer" : 0,
            "byteLength" : 2868,
            "byteOffset" : 30528
        },
        {
            "buffer" : 0,
            "byteLength" : 13008,
            "byteOffset" : 33396
        },
        {
            "buffer" : 0,
            "byteLength" : 13008,
            "byteOffset" : 46404
        },
        {
            "buffer" : 0,
            "byteLength" : 8672,
            "byteOffset" : 59412
        },
        {
            "buffer" : 0,
            "byteLength" : 3252,
            "byteOffset" : 68084
        }
    ],
    "buffers" : [
        {
            "byteLength" : 71336,
            "uri" : "data:application/octet-stream;base64,"
        }
    ]
}
