{
    "asset" : {
        "generator" : "Khronos glTF Blender I/O v1.4.40",
        "version" : "2.0"
    },
    "scene" : 0,
    "scenes" : [
        {
            "extras" : {
                "glTF2ExportSettings" : {
                    "export_animations" : 1,
                    "export_cameras" : 0,
                    "export_colors" : 1,
                    "export_extras" : 1,
                    "export_force_sampling" : 0,
                    "export_format" : "GLTF_EMBEDDED",
                    "export_image_format" : "AUTO",
                    "export_lights" : 0,
                    "export_morph" : 1,
                    "export_normals" : 1,
                    "export_skins" : 1,
                    "export_texcoords" : 1,
                    "export_yup" : 1,
                    "use_selection" : 1
                },
                "blosm" : {
                    "defaultLevels" : [
                        {
                            "levels" : 4,
                            "weight" : 10
                        },
                        {
                            "levels" : 5,
                            "weight" : 40
                        },
                        {
                            "levels" : 6,
                            "weight" : 10
                        }
                    ]
                }
            },
            "name" : "Scene",
            "nodes" : [
                0
            ]
        }
    ],
    "nodes" : [
        {
            "extras" : {
                "sparkar_optimization" : {
                    "InvertedReducePercentage" : 0
                },
                "spark_blender_addon" : 1
            },
            "mesh" : 0,
            "name" : "Cube.008",
            "rotation" : [
                0,
                0,
                -0.7053846120834351,
                0.7088247537612915
            ],
            "scale" : [
                0.16838166117668152,
                0.516608715057373,
                0.047999583184719086
            ]
        }
    ],
    "materials" : [
        {
            "doubleSided" : true,
            "name" : "Material.001",
            "pbrMetallicRoughness" : {
                "baseColorFactor" : [
                    0.027209870517253876,
                    0,
                    0.008836837485432625,
                    1
                ],
                "metallicFactor" : 0.9780219793319702,
                "roughnessFactor" : 0.5
            }
        },
        {
            "doubleSided" : true,
            "name" : "Material.002",
            "pbrMetallicRoughness" : {
                "baseColorFactor" : [
                    0.4769901931285858,
                    0.01040839496999979,
                    0.04053843021392822,
                    1
                ],
                "metallicFactor" : 0.7032967209815979,
                "roughnessFactor" : 0
            }
        }
    ],
    "meshes" : [
        {
            "name" : "Cube.008",
            "primitives" : [
                {
                    "attributes" : {
                        "POSITION" : 0,
                        "NORMAL" : 1,
                        "TEXCOORD_0" : 2
                    },
                    "indices" : 3,
                    "material" : 0
                },
                {
                    "attributes" : {
                        "POSITION" : 4,
                        "NORMAL" : 5,
                        "TEXCOORD_0" : 6
                    },
                    "indices" : 7,
                    "material" : 1
                },
                {
                    "attributes" : {
                        "POSITION" : 8,
                        "NORMAL" : 9,
                        "TEXCOORD_0" : 10
                    },
                    "indices" : 11,
                    "material" : 1
                }
            ]
        }
    ],
    "accessors" : [
        {
            "bufferView" : 0,
            "componentType" : 5126,
            "count" : 1626,
            "max" : [
                8.581151962280273,
                5.303147315979004,
                259.47705078125
            ],
            "min" : [
                -40.58905029296875,
                3.1945295333862305,
                -218.00238037109375
            ],
            "type" : "VEC3"
        },
        {
            "bufferView" : 1,
            "componentType" : 5126,
            "count" : 1626,
            "type" : "VEC3"
        },
        {
            "bufferView" : 2,
            "componentType" : 5126,
            "count" : 1626,
            "type" : "VEC2"
        },
        {
            "bufferView" : 3,
            "componentType" : 5123,
            "count" : 2466,
            "type" : "SCALAR"
        },
        {
            "bufferView" : 4,
            "componentType" : 5126,
            "count" : 1213,
            "max" : [
                8.581151962280273,
                5.303147315979004,
                259.47705078125
            ],
            "min" : [
                -40.58905029296875,
                3.1945295333862305,
                -218.00238037109375
            ],
            "type" : "VEC3"
        },
        {
            "bufferView" : 5,
            "componentType" : 5126,
            "count" : 1213,
            "type" : "VEC3"
        },
        {
            "bufferView" : 6,
            "componentType" : 5126,
            "count" : 1213,
            "type" : "VEC2"
        },
        {
            "bufferView" : 7,
            "componentType" : 5123,
            "count" : 1932,
            "type" : "SCALAR"
        },
        {
            "bufferView" : 8,
            "componentType" : 5126,
            "count" : 3,
            "max" : [
                -14.158632278442383,
                3.334228992462158,
                230.65634155273438
            ],
            "min" : [
                -17.07861328125,
                3.3334548473358154,
                196.60110473632812
            ],
            "type" : "VEC3"
        },
        {
            "bufferView" : 9,
            "componentType" : 5126,
            "count" : 3,
            "type" : "VEC3"
        },
        {
            "bufferView" : 10,
            "componentType" : 5126,
            "count" : 3,
            "type" : "VEC2"
        },
        {
            "bufferView" : 11,
            "componentType" : 5123,
            "count" : 3,
            "type" : "SCALAR"
        }
    ],
    "bufferViews" : [
        {
            "buffer" : 0,
            "byteLength" : 19512,
            "byteOffset" : 0
        },
        {
            "buffer" : 0,
            "byteLength" : 19512,
            "byteOffset" : 19512
        },
        {
            "buffer" : 0,
            "byteLength" : 13008,
            "byteOffset" : 39024
        },
        {
            "buffer" : 0,
            "byteLength" : 4932,
            "byteOffset" : 52032
        },
        {
            "buffer" : 0,
            "byteLength" : 14556,
            "byteOffset" : 56964
        },
        {
            "buffer" : 0,
            "byteLength" : 14556,
            "byteOffset" : 71520
        },
        {
            "buffer" : 0,
            "byteLength" : 9704,
            "byteOffset" : 86076
        },
        {
            "buffer" : 0,
            "byteLength" : 3864,
            "byteOffset" : 95780
        },
        {
            "buffer" : 0,
            "byteLength" : 36,
            "byteOffset" : 99644
        },
        {
            "buffer" : 0,
            "byteLength" : 36,
            "byteOffset" : 99680
        },
        {
            "buffer" : 0,
            "byteLength" : 24,
            "byteOffset" : 99716
        },
        {
            "buffer" : 0,
            "byteLength" : 6,
            "byteOffset" : 99740
        }
    ],
    "buffers" : [
        {
            "byteLength" : 99748,
            "uri" : "data:application/octet-stream;base64,"
        }
    ]
}
