{
    "asset" : {
        "generator" : "Khronos glTF Blender I/O v1.7.33",
        "version" : "2.0"
    },
    "scene" : 0,
    "scenes" : [
        {
            "extras" : {
                "blosm" : {
                    "defaultLevels" : [
                        {
                            "levels" : 4,
                            "weight" : 10
                        },
                        {
                            "levels" : 5,
                            "weight" : 40
                        },
                        {
                            "levels" : 6,
                            "weight" : 10
                        }
                    ]
                }
            },
            "name" : "Scene",
            "nodes" : [
                0
            ]
        }
    ],
    "nodes" : [
        {
            "extras" : {
                "sparkar_optimization" : {
                    "InvertedReducePercentage" : 0.0
                },
                "spark_blender_addon" : 1
            },
            "mesh" : 0,
            "name" : "Cube.001",
            "rotation" : [
                0.01923542283475399,
                0.01855110377073288,
                -0.6939396262168884,
                0.719537079334259
            ],
            "translation" : [
                0.6210533380508423,
                7.16172981262207,
                0.7298229336738586
            ]
        }
    ],
    "materials" : [
        {
            "doubleSided" : true,
            "name" : "Material.004",
            "pbrMetallicRoughness" : {
                "baseColorFactor" : [
                    0.03200674429535866,
                    0.8000000715255737,
                    0.056936584413051605,
                    1
                ],
                "metallicFactor" : 0.4545454978942871,
                "roughnessFactor" : 0.155080184340477
            }
        },
        {
            "doubleSided" : true,
            "name" : "Material.003",
            "pbrMetallicRoughness" : {
                "baseColorFactor" : [
                    0,
                    0,
                    0,
                    1
                ],
                "metallicFactor" : 1,
                "roughnessFactor" : 1
            }
        }
    ],
    "meshes" : [
        {
            "name" : "Cube.002",
            "primitives" : [
                {
                    "attributes" : {
                        "POSITION" : 0,
                        "NORMAL" : 1,
                        "TEXCOORD_0" : 2
                    },
                    "indices" : 3,
                    "material" : 0
                },
                {
                    "attributes" : {
                        "POSITION" : 4,
                        "NORMAL" : 5,
                        "TEXCOORD_0" : 6
                    },
                    "indices" : 7,
                    "material" : 1
                },
                {
                    "attributes" : {
                        "POSITION" : 8,
                        "NORMAL" : 9,
                        "TEXCOORD_0" : 10
                    },
                    "indices" : 11,
                    "material" : 1
                }
            ]
        }
    ],
    "accessors" : [
        {
            "bufferView" : 0,
            "componentType" : 5126,
            "count" : 1522,
            "max" : [
                9.148826599121094,
                1.3321428298950195,
                25.68706703186035
            ],
            "min" : [
                -9.57874584197998,
                -1.2944579124450684,
                -25.24972915649414
            ],
            "type" : "VEC3"
        },
        {
            "bufferView" : 1,
            "componentType" : 5126,
            "count" : 1522,
            "type" : "VEC3"
        },
        {
            "bufferView" : 2,
            "componentType" : 5126,
            "count" : 1522,
            "type" : "VEC2"
        },
        {
            "bufferView" : 3,
            "componentType" : 5123,
            "count" : 2286,
            "type" : "SCALAR"
        },
        {
            "bufferView" : 4,
            "componentType" : 5126,
            "count" : 54,
            "max" : [
                2.4388365745544434,
                1.003441572189331,
                4.883586406707764
            ],
            "min" : [
                -0.2380494475364685,
                -0.996558427810669,
                -1.5194053649902344
            ],
            "type" : "VEC3"
        },
        {
            "bufferView" : 5,
            "componentType" : 5126,
            "count" : 54,
            "type" : "VEC3"
        },
        {
            "bufferView" : 6,
            "componentType" : 5126,
            "count" : 54,
            "type" : "VEC2"
        },
        {
            "bufferView" : 7,
            "componentType" : 5123,
            "count" : 84,
            "type" : "SCALAR"
        },
        {
            "bufferView" : 8,
            "componentType" : 5126,
            "count" : 1600,
            "max" : [
                9.148826599121094,
                1.3321428298950195,
                25.68706703186035
            ],
            "min" : [
                -9.57874584197998,
                -1.2944579124450684,
                -25.24972915649414
            ],
            "type" : "VEC3"
        },
        {
            "bufferView" : 9,
            "componentType" : 5126,
            "count" : 1600,
            "type" : "VEC3"
        },
        {
            "bufferView" : 10,
            "componentType" : 5126,
            "count" : 1600,
            "type" : "VEC2"
        },
        {
            "bufferView" : 11,
            "componentType" : 5123,
            "count" : 2400,
            "type" : "SCALAR"
        }
    ],
    "bufferViews" : [
        {
            "buffer" : 0,
            "byteLength" : 18264,
            "byteOffset" : 0
        },
        {
            "buffer" : 0,
            "byteLength" : 18264,
            "byteOffset" : 18264
        },
        {
            "buffer" : 0,
            "byteLength" : 12176,
            "byteOffset" : 36528
        },
        {
            "buffer" : 0,
            "byteLength" : 4572,
            "byteOffset" : 48704
        },
        {
            "buffer" : 0,
            "byteLength" : 648,
            "byteOffset" : 53276
        },
        {
            "buffer" : 0,
            "byteLength" : 648,
            "byteOffset" : 53924
        },
        {
            "buffer" : 0,
            "byteLength" : 432,
            "byteOffset" : 54572
        },
        {
            "buffer" : 0,
            "byteLength" : 168,
            "byteOffset" : 55004
        },
        {
            "buffer" : 0,
            "byteLength" : 19200,
            "byteOffset" : 55172
        },
        {
            "buffer" : 0,
            "byteLength" : 19200,
            "byteOffset" : 74372
        },
        {
            "buffer" : 0,
            "byteLength" : 12800,
            "byteOffset" : 93572
        },
        {
            "buffer" : 0,
            "byteLength" : 4800,
            "byteOffset" : 106372
        }
    ],
    "buffers" : [
        {
            "byteLength" : 111172,
            "uri" : "data:application/octet-stream;base64,"
        }
    ]
}
