{
    "asset" : {
        "generator" : "Khronos glTF Blender I/O v1.7.33",
        "version" : "2.0"
    },
    "scene" : 0,
    "scenes" : [
        {
            "extras" : {
                "blosm" : {
                    "defaultLevels" : [
                        {
                            "levels" : 4,
                            "weight" : 10
                        },
                        {
                            "levels" : 5,
                            "weight" : 40
                        },
                        {
                            "levels" : 6,
                            "weight" : 10
                        }
                    ]
                }
            },
            "name" : "Scene",
            "nodes" : [
                0
            ]
        }
    ],
    "nodes" : [
        {
            "extras" : {
                "sparkar_optimization" : {
                    "InvertedReducePercentage" : 0.0
                },
                "spark_blender_addon" : 1
            },
            "mesh" : 0,
            "name" : "Cube.008",
            "rotation" : [
                0,
                0,
                -0.7071068286895752,
                0.7071068286895752
            ],
            "scale" : [
                0.3449596166610718,
                1.0583642721176147,
                0.0983356386423111
            ],
            "translation" : [
                -0.08705490827560425,
                7.624659538269043,
                0.8276228308677673
            ]
        }
    ],
    "materials" : [
        {
            "doubleSided" : true,
            "name" : "Material.001",
            "pbrMetallicRoughness" : {
                "baseColorFactor" : [
                    0.027209870517253876,
                    0,
                    0.008836837485432625,
                    1
                ],
                "metallicFactor" : 0.9780219793319702,
                "roughnessFactor" : 0.5
            }
        },
        {
            "doubleSided" : true,
            "name" : "Material.002",
            "pbrMetallicRoughness" : {
                "baseColorFactor" : [
                    0.4769901931285858,
                    0.01040839496999979,
                    0.04053843021392822,
                    1
                ],
                "metallicFactor" : 0.7032967209815979,
                "roughnessFactor" : 0
            }
        }
    ],
    "meshes" : [
        {
            "name" : "Cube.008",
            "primitives" : [
                {
                    "attributes" : {
                        "POSITION" : 0,
                        "NORMAL" : 1,
                        "TEXCOORD_0" : 2
                    },
                    "indices" : 3,
                    "material" : 0
                },
                {
                    "attributes" : {
                        "POSITION" : 4,
                        "NORMAL" : 5,
                        "TEXCOORD_0" : 6
                    },
                    "indices" : 7,
                    "material" : 1
                },
                {
                    "attributes" : {
                        "POSITION" : 8,
                        "NORMAL" : 9,
                        "TEXCOORD_0" : 10
                    },
                    "indices" : 11,
                    "material" : 1
                }
            ]
        }
    ],
    "accessors" : [
        {
            "bufferView" : 0,
            "componentType" : 5126,
            "count" : 1640,
            "max" : [
                21.26224136352539,
                1.181396245956421,
                242.2347869873047
            ],
            "min" : [
                -27.907962799072266,
                -0.9272215962409973,
                -235.24464416503906
            ],
            "type" : "VEC3"
        },
        {
            "bufferView" : 1,
            "componentType" : 5126,
            "count" : 1640,
            "type" : "VEC3"
        },
        {
            "bufferView" : 2,
            "componentType" : 5126,
            "count" : 1640,
            "type" : "VEC2"
        },
        {
            "bufferView" : 3,
            "componentType" : 5123,
            "count" : 2466,
            "type" : "SCALAR"
        },
        {
            "bufferView" : 4,
            "componentType" : 5126,
            "count" : 1211,
            "max" : [
                21.26224136352539,
                1.181396245956421,
                242.2347869873047
            ],
            "min" : [
                -27.907962799072266,
                -0.9272215962409973,
                -235.24464416503906
            ],
            "type" : "VEC3"
        },
        {
            "bufferView" : 5,
            "componentType" : 5126,
            "count" : 1211,
            "type" : "VEC3"
        },
        {
            "bufferView" : 6,
            "componentType" : 5126,
            "count" : 1211,
            "type" : "VEC2"
        },
        {
            "bufferView" : 7,
            "componentType" : 5123,
            "count" : 1932,
            "type" : "SCALAR"
        },
        {
            "bufferView" : 8,
            "componentType" : 5126,
            "count" : 3,
            "max" : [
                -1.4775441884994507,
                -0.7875221371650696,
                213.41407775878906
            ],
            "min" : [
                -4.397525310516357,
                -0.7882962822914124,
                179.3588409423828
            ],
            "type" : "VEC3"
        },
        {
            "bufferView" : 9,
            "componentType" : 5126,
            "count" : 3,
            "type" : "VEC3"
        },
        {
            "bufferView" : 10,
            "componentType" : 5126,
            "count" : 3,
            "type" : "VEC2"
        },
        {
            "bufferView" : 11,
            "componentType" : 5123,
            "count" : 3,
            "type" : "SCALAR"
        }
    ],
    "bufferViews" : [
        {
            "buffer" : 0,
            "byteLength" : 19680,
            "byteOffset" : 0
        },
        {
            "buffer" : 0,
            "byteLength" : 19680,
            "byteOffset" : 19680
        },
        {
            "buffer" : 0,
            "byteLength" : 13120,
            "byteOffset" : 39360
        },
        {
            "buffer" : 0,
            "byteLength" : 4932,
            "byteOffset" : 52480
        },
        {
            "buffer" : 0,
            "byteLength" : 14532,
            "byteOffset" : 57412
        },
        {
            "buffer" : 0,
            "byteLength" : 14532,
            "byteOffset" : 71944
        },
        {
            "buffer" : 0,
            "byteLength" : 9688,
            "byteOffset" : 86476
        },
        {
            "buffer" : 0,
            "byteLength" : 3864,
            "byteOffset" : 96164
        },
        {
            "buffer" : 0,
            "byteLength" : 36,
            "byteOffset" : 100028
        },
        {
            "buffer" : 0,
            "byteLength" : 36,
            "byteOffset" : 100064
        },
        {
            "buffer" : 0,
            "byteLength" : 24,
            "byteOffset" : 100100
        },
        {
            "buffer" : 0,
            "byteLength" : 6,
            "byteOffset" : 100124
        }
    ],
    "buffers" : [
        {
            "byteLength" : 100132,
            "uri" : "data:application/octet-stream;base64,"
        }
    ]
}
